<svg version="1.0" xmlns="http://www.w3.org/2000/svg"
 width="128" height="128" viewBox="130.570312 217.302537 1784.367188 1598.018729"
 preserveAspectRatio="xMidYMid meet">
<title>Uncial</title>
<style>
.icon-bg { fill: #ffffff; }
path { fill: oklch(46% 0.14 260); stroke: oklch(46% 0.14 260); stroke-linejoin: round; stroke-width: 140; paint-order: stroke fill; }
</style>
<rect class="icon-bg" x="130.570312" y="217.302537" width="1784.367188" height="1598.018729" rx="260" />

<g transform="translate(0.000000,2048.000000) scale(0.100000,-0.100000)"
>
<path d="M16797 16696 c-49 -18 -69 -37 -98 -92 l-24 -44 -815 0 -816 0 -422
-423 -422 -423 0 -1542 0 -1541 -29 -15 c-42 -22 -89 -80 -102 -128 -21 -80
17 -165 93 -208 57 -32 150 -26 203 14 105 80 97 238 -15 308 -27 17 -50 31
-51 32 0 1 -2 529 -5 1174 -4 820 -2 1182 5 1205 8 22 152 173 469 490 l458
457 744 0 745 -1 -119 -40 c-329 -111 -615 -282 -844 -503 -320 -310 -489
-623 -563 -1041 -17 -97 -23 -186 -29 -465 -5 -211 -15 -394 -25 -470 -70
-535 -223 -934 -546 -1418 -88 -131 -232 -335 -356 -504 -496 -677 -697 -1130
-784 -1769 -18 -134 -22 -230 -29 -749 -4 -327 -13 -660 -20 -740 -67 -843
-336 -1562 -787 -2100 -275 -328 -635 -593 -1033 -761 l-135 -57 3 -58 c2 -33
8 -63 12 -68 17 -18 287 93 453 186 537 301 935 723 1221 1297 221 441 353
928 407 1491 6 63 14 401 19 750 5 349 13 680 20 735 67 593 275 1080 730
1710 484 671 545 766 689 1067 144 302 232 613 276 978 9 76 20 280 25 465 5
212 14 366 24 430 40 249 128 480 257 674 147 220 373 434 603 574 314 190
716 318 1075 343 56 4 103 10 105 13 1 3 0 34 -3 69 l-6 63 -1080 -1 -1080 0
-452 -453 -453 -452 0 180 c0 99 3 217 7 262 l6 83 389 395 390 395 793 0 793
0 32 -50 c39 -61 90 -90 156 -90 110 0 190 80 188 190 -1 89 -51 157 -132 180
-48 13 -68 12 -115 -4z m98 -90 c40 -17 55 -42 55 -91 0 -77 -92 -123 -153
-75 -52 41 -42 140 17 166 39 17 40 17 81 0z m-2587 -4091 c39 -32 48 -74 28
-114 -30 -57 -94 -68 -145 -25 -43 36 -44 93 -2 135 37 37 79 38 119 4z"/>
<path d="M12148 16564 c-110 -34 -160 -190 -91 -283 37 -48 70 -65 138 -69 55
-4 71 -1 111 22 25 14 52 26 59 26 20 0 207 -95 317 -161 198 -119 447 -306
603 -451 216 -202 407 -489 483 -728 71 -223 66 -99 69 -1590 l3 -1345 -37
-20 c-21 -11 -47 -37 -60 -60 -79 -139 74 -297 217 -223 114 58 120 209 13
281 l-43 28 0 1309 c0 1268 -1 1312 -20 1427 -23 135 -83 320 -142 438 -88
175 -269 411 -429 559 -230 213 -564 444 -825 571 -103 51 -114 58 -114 83 0
138 -121 227 -252 186z m119 -99 c28 -19 45 -78 33 -110 -12 -33 -54 -58 -93
-57 -74 2 -115 105 -62 157 28 29 88 34 122 10z"/>
<path d="M4145 16389 c-623 -49 -1055 -470 -1055 -1029 0 -368 179 -669 483
-810 180 -84 437 -99 619 -35 239 82 408 313 408 555 0 153 -53 284 -150 374
-86 79 -185 117 -298 115 -47 -1 -47 -1 21 -14 124 -25 212 -96 272 -219 139
-286 -34 -618 -365 -702 -96 -24 -259 -15 -365 20 -227 77 -390 256 -457 501
-30 114 -30 316 0 430 75 275 265 481 552 596 139 55 230 72 395 72 531 2
1001 -279 1230 -733 83 -166 139 -348 189 -620 51 -278 51 -288 51 -2167 0
-964 1 -1753 2 -1753 1 0 9 24 19 53 9 28 41 104 71 167 l54 115 -4 1650 c-4
1801 -1 1710 -62 2025 -85 436 -227 733 -464 971 -112 112 -241 206 -366 265
l-70 33 1711 1 c941 0 1726 3 1743 6 47 10 37 -9 -17 -30 -26 -10 -87 -41
-135 -69 -405 -228 -659 -602 -771 -1136 -41 -191 -56 -349 -66 -681 -13 -439
-43 -660 -131 -967 -114 -398 -258 -690 -632 -1281 -366 -578 -466 -756 -605
-1077 -144 -333 -224 -642 -269 -1035 -16 -134 -18 -250 -18 -860 0 -606 3
-729 18 -875 34 -326 69 -504 161 -823 118 -408 279 -754 521 -1122 288 -439
657 -800 1120 -1097 437 -280 882 -474 1395 -607 145 -38 492 -106 539 -106
29 0 29 1 33 61 4 74 9 70 -142 94 -405 65 -932 239 -1320 435 -404 205 -726
430 -1012 709 -250 243 -409 444 -592 751 -192 321 -325 634 -426 1000 -122
446 -149 699 -157 1447 -9 871 22 1200 153 1628 116 380 269 688 612 1230 467
738 575 941 708 1329 128 372 177 684 194 1236 12 391 38 572 120 822 207 631
711 984 1448 1015 l152 6 0 74 0 73 -2472 -1 c-1360 -1 -2518 -5 -2573 -10z"/>
<path d="M12130 15870 c-7 -33 -10 -63 -6 -67 3 -4 43 -17 88 -30 273 -79 509
-212 706 -398 288 -272 435 -582 482 -1017 6 -63 10 -659 10 -1678 l0 -1580
75 0 76 0 -4 1613 c-3 1441 -5 1624 -20 1722 -37 243 -75 377 -152 542 -203
432 -629 786 -1119 927 -123 36 -121 37 -136 -34z"/>
<path d="M15235 15676 c-39 -17 -93 -78 -101 -114 -3 -15 -7 -33 -10 -40 -2
-7 1 -35 7 -62 l11 -50 -281 -288 -281 -287 0 -802 0 -803 -38 -25 c-72 -47
-96 -157 -49 -226 92 -137 307 -78 307 84 0 54 -39 119 -87 145 l-43 23 0 781
0 780 266 274 265 273 41 -15 c70 -24 137 -12 193 37 96 85 78 251 -35 309
-45 23 -120 26 -165 6z m132 -91 c32 -23 46 -80 28 -121 -15 -37 -41 -54 -84
-54 -43 0 -60 9 -76 41 -24 45 -19 87 14 120 34 33 82 39 118 14z"/>
<path d="M16662 15539 c-52 -26 -90 -79 -100 -139 -7 -44 -7 -44 -87 -75 -243
-96 -419 -229 -566 -428 -217 -291 -299 -567 -299 -998 0 -109 -1 -118 -20
-124 -33 -10 -80 -55 -100 -96 -49 -94 -7 -203 95 -250 155 -72 322 99 245
250 -20 40 -67 85 -99 96 -14 4 -20 19 -24 68 -9 88 8 368 28 460 62 297 236
579 471 767 78 62 237 148 325 175 l56 18 26 -27 c56 -56 139 -71 212 -37 55
25 85 61 101 120 41 161 -117 293 -264 220z m134 -91 c51 -24 59 -105 15 -149
-42 -41 -83 -39 -128 6 -31 31 -35 40 -30 72 13 76 71 105 143 71z m-1095
-1764 c17 -8 37 -30 45 -50 12 -30 12 -39 -1 -69 -26 -64 -103 -78 -157 -28
-44 39 -24 123 35 148 41 18 42 18 78 -1z"/>
<path d="M7462 12962 c-1 -7 -33 -86 -72 -176 l-70 -163 0 -2004 c0 -1200 4
-2074 10 -2179 21 -362 99 -829 191 -1140 108 -364 295 -749 505 -1041 335
-466 834 -855 1308 -1018 129 -45 122 -47 128 43 l3 50 -130 56 c-492 211
-878 517 -1174 929 -479 666 -637 1359 -445 1952 48 150 94 255 156 358 174
288 454 499 753 567 105 24 301 24 400 0 247 -60 470 -272 532 -507 20 -78 23
-252 4 -329 -70 -295 -338 -485 -603 -429 -300 64 -427 424 -217 613 63 57
103 70 192 63 69 -4 70 -4 41 11 -16 8 -62 17 -101 20 -63 4 -79 1 -125 -21
-70 -34 -135 -99 -167 -167 -23 -48 -26 -68 -26 -161 0 -102 1 -108 38 -183
63 -127 171 -218 301 -252 69 -18 237 -18 311 1 170 43 308 160 389 326 60
125 80 228 73 369 -3 58 -13 132 -22 165 -50 188 -187 364 -368 473 -133 81
-357 132 -511 117 -298 -29 -541 -142 -751 -350 -115 -114 -191 -214 -260
-346 -30 -57 -55 -99 -55 -93 0 7 16 55 35 107 100 277 265 513 533 764 212
198 393 383 451 461 209 277 256 616 124 881 -50 99 -153 204 -248 253 -106
55 -175 72 -290 72 -115 0 -185 -18 -288 -71 -195 -102 -306 -348 -252 -556
42 -162 148 -264 309 -297 218 -45 407 139 327 316 -27 60 -39 61 -27 4 26
-129 -79 -240 -230 -240 -115 0 -218 71 -273 190 -22 47 -26 68 -26 145 1 115
26 183 98 262 99 108 218 163 355 163 151 0 256 -44 368 -155 120 -119 171
-260 161 -450 -6 -116 -23 -179 -78 -289 -82 -166 -160 -255 -555 -636 -244
-236 -369 -401 -484 -642 -102 -215 -155 -426 -179 -711 -5 -60 -11 -111 -13
-113 -3 -2 -13 76 -24 174 -18 167 -19 305 -24 2502 -3 1279 -6 2319 -8 2312z"/>
<path d="M15195 12097 c-43 -20 -92 -80 -105 -129 -10 -35 -9 -51 8 -102 l20
-61 -87 -110 c-48 -60 -173 -220 -278 -355 -104 -135 -249 -321 -321 -414
l-132 -169 -2 -236 c-1 -130 0 -591 1 -1026 3 -1066 -11 -1338 -89 -1735 -45
-225 -147 -558 -216 -705 -18 -37 -23 -40 -66 -45 -80 -10 -157 -85 -165 -163
-13 -116 69 -206 190 -207 90 0 153 49 177 139 16 62 4 116 -37 162 l-34 38
17 33 c60 115 176 492 223 723 77 378 90 669 91 2012 l0 973 212 272 c265 341
468 604 532 688 l50 65 76 0 c65 0 82 4 113 25 75 52 104 166 60 241 -44 77
-164 120 -238 86z m137 -106 c25 -22 32 -36 32 -66 0 -30 -7 -44 -32 -66 -49
-44 -119 -34 -148 22 -19 38 -18 62 7 93 41 53 94 59 141 17z m-1337 -5081
c31 -12 59 -72 50 -107 -17 -69 -109 -97 -158 -48 -30 31 -37 62 -23 106 17
51 71 72 131 49z"/>
<path d="M6569 11377 c-64 -102 -59 17 -59 -1359 0 -1317 7 -1614 40 -1874 82
-641 300 -1231 641 -1734 504 -744 1264 -1281 2141 -1510 48 -12 94 -20 102
-17 10 4 16 19 16 41 0 39 13 32 -135 70 -419 109 -921 360 -1270 636 -445
352 -768 747 -1019 1250 -221 443 -344 883 -407 1460 -8 72 -14 574 -18 1592
l-6 1488 -26 -43z"/>
<path d="M15215 11338 c-104 -38 -149 -138 -111 -246 l15 -41 -166 -193 c-91
-106 -176 -207 -189 -223 l-23 -31 -4 -1159 c-4 -1230 -3 -1210 -53 -1500 -91
-535 -274 -983 -580 -1425 -226 -325 -508 -609 -847 -852 -451 -323 -1052
-575 -1642 -688 -60 -11 -120 -23 -132 -26 -20 -4 -23 -11 -23 -49 0 -25 2
-45 5 -45 15 0 326 65 410 86 781 194 1526 619 1999 1140 578 635 892 1377
946 2234 6 95 10 609 10 1211 l0 1045 143 165 c78 90 158 183 177 206 l35 42
45 -11 c87 -20 194 37 221 119 17 51 6 126 -24 171 -41 63 -142 97 -212 70z
m128 -119 c69 -75 -11 -185 -106 -145 -41 16 -57 41 -57 86 0 43 16 69 53 86
42 18 76 10 110 -27z"/>
<path d="M15170 9468 c0 -817 -3 -1056 -15 -1190 -44 -500 -145 -900 -335
-1329 -196 -442 -458 -819 -806 -1160 -241 -235 -491 -422 -804 -601 -484
-276 -1080 -482 -1619 -558 -73 -11 -135 -21 -138 -23 -9 -10 10 -137 21 -137
22 0 370 61 466 82 266 57 593 159 815 253 423 180 835 427 1139 684 433 365
789 821 1009 1291 181 386 300 776 357 1170 52 362 62 645 58 1685 l-3 850
-72 3 -73 3 0 -1023z"/>
<path d="M13840 9564 c-88 -38 -133 -128 -109 -216 12 -46 71 -116 105 -124
l24 -6 0 -412 c0 -632 -28 -897 -140 -1331 -139 -540 -367 -1005 -707 -1442
-35 -46 -68 -83 -73 -83 -5 0 -21 5 -35 10 -35 13 -99 -3 -143 -37 -103 -78
-93 -254 18 -310 95 -49 219 -12 266 80 22 42 23 115 1 163 l-19 41 90 122
c236 315 399 605 529 936 123 313 192 559 243 870 49 297 52 356 57 882 l5
501 46 24 c37 19 53 35 75 78 32 63 34 100 8 155 -44 95 -150 139 -241 99z
m137 -107 c35 -36 34 -97 -2 -132 -76 -76 -201 35 -139 123 33 47 100 51 141
9z m-1036 -3616 c40 -40 40 -88 0 -130 -22 -24 -38 -31 -66 -31 -51 0 -95 44
-95 95 0 51 44 95 95 95 27 0 44 -8 66 -29z"/>
<path d="M10363 5716 c-447 -264 -661 -392 -676 -404 -16 -14 -17 -46 -15
-470 l3 -455 380 -229 c209 -125 388 -230 397 -233 11 -4 117 54 295 162 153
92 328 197 388 233 l110 66 0 459 0 460 -380 226 c-209 125 -388 229 -397 232
-9 3 -56 -19 -105 -47z m452 -263 l345 -207 -2 -404 -3 -404 -135 -81 c-74
-44 -220 -132 -323 -195 -104 -63 -201 -119 -217 -125 -26 -10 -52 4 -376 199
l-349 209 -3 394 c-1 270 1 398 9 407 5 7 88 58 182 113 95 55 246 145 337
200 91 55 171 100 178 100 7 1 168 -92 357 -206z"/>
<path d="M10415 5419 c-67 -36 -244 -138 -357 -206 -73 -43 -110 -71 -113 -86
-3 -12 -4 -148 -3 -302 l3 -280 170 -103 c257 -155 332 -195 359 -188 28 7
488 283 498 299 4 7 8 138 8 293 0 209 -3 284 -12 296 -14 17 -470 288 -496
294 -9 3 -35 -5 -57 -17z m190 -160 c77 -44 173 -101 213 -126 l72 -45 -2
-245 -3 -246 -205 -123 c-113 -68 -212 -124 -221 -124 -8 0 -82 41 -165 91
-82 51 -175 107 -206 126 l-58 34 0 245 0 245 31 17 c16 9 110 65 207 123 97
59 182 107 187 108 6 0 73 -35 150 -80z"/>
</g>
</svg>
